<?xml version="1.0" encoding="UTF-8"?>
<svg version="1.1" xmlns="http://www.w3.org/2000/svg" width="160" height="160">
<path d="M0 0 C26.4 0 52.8 0 80 0 C80 3.3 80 6.6 80 10 C86.6 10 93.2 10 100 10 C100 13.3 100 16.6 100 20 C103.3 20 106.6 20 110 20 C110 26.6 110 33.2 110 40 C113.3 40 116.6 40 120 40 C120 66.4 120 92.8 120 120 C116.7 120 113.4 120 110 120 C110 126.6 110 133.2 110 140 C106.7 140 103.4 140 100 140 C100 143.3 100 146.6 100 150 C93.4 150 86.8 150 80 150 C80 153.3 80 156.6 80 160 C53.6 160 27.2 160 0 160 C0 156.7 0 153.4 0 150 C-6.6 150 -13.2 150 -20 150 C-20 146.7 -20 143.4 -20 140 C-23.3 140 -26.6 140 -30 140 C-30 133.4 -30 126.8 -30 120 C-33.3 120 -36.6 120 -40 120 C-40 93.6 -40 67.2 -40 40 C-36.7 40 -33.4 40 -30 40 C-30 33.4 -30 26.8 -30 20 C-26.7 20 -23.4 20 -20 20 C-20 16.7 -20 13.4 -20 10 C-13.4 10 -6.8 10 0 10 C0 6.7 0 3.4 0 0 Z " fill="#46425E" transform="translate(40,0)"/>
<path d="M0 0 C26.4 0 52.8 0 80 0 C80 3.3 80 6.6 80 10 C83.3 10 86.6 10 90 10 C90 13.3 90 16.6 90 20 C93.3 20 96.6 20 100 20 C100 23.3 100 26.6 100 30 C96.7 30 93.4 30 90 30 C90 33.3 90 36.6 90 40 C57 40 24 40 -10 40 C-10 30.1 -10 20.2 -10 10 C-6.7 10 -3.4 10 0 10 C0 6.7 0 3.4 0 0 Z " fill="#FF6973" transform="translate(40,30)"/>
<path d="M0 0 C13.2 0 26.4 0 40 0 C40 3.3 40 6.6 40 10 C43.3 10 46.6 10 50 10 C50 6.7 50 3.4 50 0 C59.9 0 69.8 0 80 0 C80 3.3 80 6.6 80 10 C83.3 10 86.6 10 90 10 C90 13.3 90 16.6 90 20 C86.7 20 83.4 20 80 20 C80 29.9 80 39.8 80 50 C63.5 50 47 50 30 50 C30 46.7 30 43.4 30 40 C26.7 40 23.4 40 20 40 C20 33.4 20 26.8 20 20 C16.7 20 13.4 20 10 20 C10 16.7 10 13.4 10 10 C6.7 10 3.4 10 0 10 C0 6.7 0 3.4 0 0 Z " fill="#FFEECC" transform="translate(30,80)"/>
<path d="M0 0 C3.3 0 6.6 0 10 0 C10 3.3 10 6.6 10 10 C16.6 10 23.2 10 30 10 C30 6.7 30 3.4 30 0 C33.3 0 36.6 0 40 0 C40 9.9 40 19.8 40 30 C23.5 30 7 30 -10 30 C-10 26.7 -10 23.4 -10 20 C-13.3 20 -16.6 20 -20 20 C-20 16.7 -20 13.4 -20 10 C-13.4 10 -6.8 10 0 10 C0 6.7 0 3.4 0 0 Z " fill="#FF6973" transform="translate(70,100)"/>
<path d="M0 0 C33 0 66 0 100 0 C100 3.3 100 6.6 100 10 C67 10 34 10 0 10 C0 6.7 0 3.4 0 0 Z " fill="#FFB0A3" transform="translate(30,60)"/>
<path d="M0 0 C6.6 0 13.2 0 20 0 C20 3.3 20 6.6 20 10 C13.4 10 6.8 10 0 10 C0 6.7 0 3.4 0 0 Z " fill="#FFB0A3" transform="translate(80,100)"/>
<path d="M0 0 C6.6 0 13.2 0 20 0 C20 3.3 20 6.6 20 10 C13.4 10 6.8 10 0 10 C0 6.7 0 3.4 0 0 Z " fill="#FFB0A3" transform="translate(50,100)"/>
<path d="M0 0 C3.3 0 6.6 0 10 0 C10 3.3 10 6.6 10 10 C6.7 10 3.4 10 0 10 C0 6.7 0 3.4 0 0 Z " fill="#FFB0A3" transform="translate(130,50)"/>
</svg>
